<svg width="30" height="30" viewBox="0 0 30 30" fill="none" xmlns="http://www.w3.org/2000/svg">
<path d="M20.4199 9.87891C20.3613 9.69727 20.1914 9.57422 20.0039 9.57422H18.4219V9.05859C18.4219 7.17773 16.8926 5.64258 15.0059 5.64258C13.1191 5.64258 11.5898 7.17188 11.5898 9.05859V9.57422H10.0078C9.81445 9.57422 9.65038 9.69727 9.59179 9.87891L5.09179 23.7773C5.05077 23.9121 5.07421 24.0586 5.15624 24.1699C5.23827 24.2812 5.37304 24.3516 5.51366 24.3516H24.498C24.7383 24.3516 24.9375 24.1523 24.9375 23.9121C24.9375 23.8535 24.9258 23.7949 24.9023 23.748L20.4199 9.87891ZM12.4629 9.05859C12.4629 7.6582 13.5996 6.52148 15 6.52148C16.4004 6.52148 17.5371 7.6582 17.5371 9.05859V9.57422H12.4629V9.05859ZM6.11132 23.4785L10.3184 10.459H11.584V11.9062C11.584 12.1465 11.7832 12.3457 12.0234 12.3457C12.2637 12.3457 12.4629 12.1465 12.4629 11.9062V10.459H17.5371V11.9062C17.5371 12.1465 17.7363 12.3457 17.9766 12.3457C18.2168 12.3457 18.416 12.1465 18.416 11.9062V10.459H19.6816L23.8887 23.4785H6.11132Z" fill="black"/>
<path d="M9.66211 20.9648C9.54492 20.9648 9.43359 21.0117 9.35156 21.0938C9.26953 21.1758 9.22266 21.2871 9.22266 21.4043C9.22266 21.5215 9.26953 21.6328 9.35156 21.7148C9.43359 21.7969 9.54492 21.8438 9.66211 21.8438C9.7793 21.8438 9.89063 21.7969 9.97266 21.7148C10.0547 21.6328 10.1016 21.5215 10.1016 21.4043C10.1016 21.2871 10.0547 21.1758 9.97266 21.0938C9.89063 21.0117 9.7793 20.9648 9.66211 20.9648Z" fill="black"/>
<path d="M12.334 20.9648C12.2168 20.9648 12.1055 21.0117 12.0234 21.0938C11.9414 21.1758 11.8945 21.2871 11.8945 21.4043C11.8945 21.5215 11.9414 21.6328 12.0234 21.7148C12.1055 21.7969 12.2168 21.8438 12.334 21.8438C12.4512 21.8438 12.5625 21.7969 12.6445 21.7148C12.7266 21.6328 12.7734 21.5215 12.7734 21.4043C12.7734 21.2871 12.7266 21.1758 12.6445 21.0938C12.5625 21.0117 12.4453 20.9648 12.334 20.9648Z" fill="black"/>
<path d="M15 20.9648C14.8828 20.9648 14.7715 21.0117 14.6895 21.0938C14.6074 21.1758 14.5605 21.2871 14.5605 21.4043C14.5605 21.5215 14.6074 21.6328 14.6895 21.7148C14.7715 21.7969 14.8828 21.8438 15 21.8438C15.1172 21.8438 15.2285 21.7969 15.3105 21.7148C15.3926 21.6328 15.4395 21.5215 15.4395 21.4043C15.4395 21.2871 15.3926 21.1758 15.3105 21.0938C15.2285 21.0117 15.1172 20.9648 15 20.9648Z" fill="black"/>
<path d="M17.666 20.9648C17.5488 20.9648 17.4375 21.0117 17.3555 21.0938C17.2734 21.1758 17.2266 21.2871 17.2266 21.4043C17.2266 21.5215 17.2734 21.6328 17.3555 21.7148C17.4375 21.7969 17.5488 21.8438 17.666 21.8438C17.7832 21.8438 17.8945 21.7969 17.9766 21.7148C18.0586 21.6328 18.1055 21.5215 18.1055 21.4043C18.1055 21.2871 18.0586 21.1758 17.9766 21.0938C17.9004 21.0117 17.7832 20.9648 17.666 20.9648Z" fill="black"/>
<path d="M20.3379 21.8438C20.4551 21.8438 20.5664 21.7969 20.6484 21.7148C20.7305 21.6328 20.7773 21.5215 20.7773 21.4043C20.7773 21.2871 20.7305 21.1758 20.6484 21.0938C20.5664 21.0117 20.4551 20.9648 20.3379 20.9648C20.2207 20.9648 20.1094 21.0117 20.0273 21.0938C19.9453 21.1758 19.8984 21.2871 19.8984 21.4043C19.8984 21.5215 19.9453 21.6328 20.0273 21.7148C20.1094 21.7969 20.2207 21.8438 20.3379 21.8438Z" fill="black"/>
</svg>
